<?xml version="1.0" encoding="utf-8"?>
<!-- Generator: Adobe Illustrator 27.5.0, SVG Export Plug-In . SVG Version: 6.00 Build 0)  -->
<svg version="1.1" id="_x3C_Layer_x3E_" xmlns="http://www.w3.org/2000/svg" xmlns:xlink="http://www.w3.org/1999/xlink" x="0px"
	 y="0px" viewBox="0 0 3000 2000" style="enable-background:new 0 0 3000 2000;" xml:space="preserve">
<rect style="fill:#D1EEF7;" width="3000" height="2000"/>
<g>
	
		<rect x="1322.941" y="532.881" transform="matrix(0.9828 0.1845 -0.1845 0.9828 229.1174 -306.3681)" style="fill:#BEE5ED;" width="875.711" height="1090.146"/>
	<g>
		<g>
			<g>
				<polygon style="fill:#F7FBFC;" points="2249.996,513.267 2119.977,1444.172 1219.879,1318.452 1376.371,197.943 
					2107.174,300.001 				"/>
			</g>
			<g>
				<g>
					<g>
						<path style="fill:#BEE5ED;" d="M1518.638,665.045c-4.591,6.67,0.374,15.46,7.681,17.296
							c8.203,2.061,14.446-5.666,13.844-13.332c-0.643-8.206-7.694-13.825-15.832-12.849c-8.094,0.971-13.572,8.412-11.509,16.429
							c5.612,21.807,41.289,1.325,27.094-13.924c-5.401-5.802-15.571-5.257-19.38,1.986c-3.677,6.994,0.472,16.567,8.563,17.595
							c7.997,1.016,15.777-6.711,13.418-14.813c-1.956-6.72-9.997-9.488-16.247-7.54c-7.799,2.43-10.145,11.668-5.263,17.953
							c4.569,5.884,13.781,7.739,19.431,2.27c5.302-5.132,4.679-14.317-0.138-19.547c-5.84-6.34-15.516-5.005-20.805,1.29
							c-5.671,6.75-4.589,16.585,2.621,21.784c6.771,4.882,16.181,3.85,21.257-2.91c5.024-6.691,4.331-17.053-3.087-21.721
							c-6.171-3.883-14.982-2.814-20.334,2.024c-6.278,5.676-5.699,15.282,0.255,20.946c6.196,5.894,15.574,6.761,22.275,1.343
							c5.672-4.586-2.123-12.794-7.761-8.236c-2.268,1.834-6.958-0.237-7.834-2.802c-1.044-3.055,2.796-4.484,5.237-4.31
							c3.474,0.248,4.333,3.963,1.879,6.398c-2.971,2.948-8.56-0.834-6.321-4.634c1.809-3.07,6.532-2.05,5.156,1.695
							c-0.401,1.092-1.04,0.83-2.163,0.186c-0.22-0.126-1.329-1.368-1.042-0.886c0.068,0.114-0.7-0.224,0.046-0.075
							c0.668,0.133,1.385-0.201,2.068,0.167c-0.539-0.291,0.442-0.605-0.487-0.039c-0.817,0.498-0.443,0.493-0.592,0.302
							c-0.421-0.538-0.437-1.717,0.384-1.047c1.47,1.201-1.173,2.961-2.45,3.685c-1.354,0.767-5.408,2.409-4.936-0.804
							c0.222-1.513,2.559-2.108,3.891-1.387c1.339,0.726,1.567,2.224,1.222,3.604c-0.136,0.544,0.717,0.233-0.034,0.104
							c-0.066-0.012-0.43-0.272-0.439-0.34c-0.099-0.809-0.59,0.893-0.071,0.138C1532.376,665.028,1522.757,659.06,1518.638,665.045
							L1518.638,665.045z"/>
					</g>
				</g>
				<g>
					<g>
						<g>
							<path style="fill:#BEE5ED;" d="M1603.076,686.764c126.349,21.368,253.269,39.306,380.59,53.796
								c36.716,4.178,73.464,8.065,110.24,11.681c6.194,0.609,6.455-9.056,0.287-9.663
								c-127.484-12.535-254.636-28.43-381.261-47.814c-35.714-5.467-71.385-11.217-107.01-17.242
								C1599.865,676.498,1596.959,685.729,1603.076,686.764L1603.076,686.764z"/>
						</g>
					</g>
					<g>
						<g>
							<path style="fill:#6699B2;" d="M1612.66,655.602c93.167,15.779,186.179,32.259,280.075,43.171
								c31.756,3.691,63.558,6.971,95.374,10.099c12.389,1.218,12.91-18.113,0.574-19.326
								c-93.46-9.187-186.257-21.26-278.855-36.886c-30.498-5.147-60.982-10.377-91.476-15.542
								c-5.187-0.878-10.35,0.963-12.087,6.396C1604.836,647.984,1607.519,654.731,1612.66,655.602L1612.66,655.602z"/>
						</g>
					</g>
					<g>
						<g>
							<path style="fill:#BEE5ED;" d="M1599.099,719.425c41.278,7.728,82.848,13.773,124.612,18.173
								c6.189,0.652,6.446-9.014,0.287-9.663c-40.905-4.31-81.623-10.183-122.054-17.752
								C1595.889,709.049,1592.992,718.281,1599.099,719.425L1599.099,719.425z"/>
						</g>
					</g>
					<g>
						<g>
							<path style="fill:#BEE5ED;" d="M1762.844,745.219c41.278,7.728,82.848,13.773,124.612,18.173
								c6.189,0.652,6.445-9.014,0.287-9.663c-40.905-4.31-81.623-10.183-122.053-17.752
								C1759.635,734.844,1756.738,744.076,1762.844,745.219L1762.844,745.219z"/>
						</g>
					</g>
				</g>
			</g>
			<g>
				<g>
					<g>
						<path style="fill:#BEE5ED;" d="M1477.657,843.74c-4.591,6.67,0.374,15.46,7.681,17.296
							c8.203,2.061,14.446-5.666,13.844-13.332c-0.643-8.206-7.694-13.825-15.832-12.849c-8.094,0.971-13.572,8.412-11.509,16.429
							c5.613,21.807,41.289,1.325,27.094-13.924c-5.401-5.802-15.571-5.257-19.38,1.986c-3.677,6.993,0.472,16.567,8.563,17.595
							c7.997,1.016,15.777-6.711,13.418-14.813c-1.956-6.72-9.997-9.488-16.247-7.54c-7.799,2.43-10.144,11.668-5.263,17.953
							c4.569,5.884,13.781,7.739,19.431,2.27c5.302-5.132,4.68-14.317-0.138-19.547c-5.84-6.34-15.516-5.005-20.805,1.29
							c-5.671,6.75-4.589,16.585,2.621,21.784c6.771,4.882,16.181,3.85,21.257-2.91c5.024-6.691,4.331-17.053-3.087-21.721
							c-6.171-3.883-14.982-2.814-20.334,2.024c-6.278,5.676-5.699,15.282,0.255,20.946c6.196,5.894,15.574,6.761,22.275,1.343
							c5.672-4.586-2.123-12.794-7.761-8.235c-2.268,1.834-6.958-0.237-7.834-2.802c-1.044-3.055,2.796-4.484,5.237-4.31
							c3.474,0.248,4.333,3.963,1.879,6.398c-2.971,2.948-8.56-0.834-6.32-4.634c1.81-3.07,6.532-2.05,5.156,1.695
							c-0.401,1.092-1.041,0.83-2.163,0.186c-0.221-0.127-1.329-1.368-1.042-0.886c0.068,0.114-0.7-0.224,0.046-0.075
							c0.668,0.133,1.385-0.201,2.068,0.167c-0.539-0.291,0.442-0.605-0.487-0.039c-0.817,0.498-0.443,0.493-0.592,0.302
							c-0.421-0.538-0.437-1.717,0.383-1.047c1.47,1.201-1.173,2.961-2.45,3.685c-1.354,0.767-5.408,2.409-4.936-0.804
							c0.222-1.513,2.559-2.108,3.891-1.387c1.34,0.726,1.567,2.224,1.222,3.604c-0.136,0.544,0.717,0.233-0.034,0.104
							c-0.066-0.011-0.431-0.272-0.439-0.34c-0.099-0.809-0.59,0.893-0.071,0.138
							C1491.395,843.722,1481.776,837.755,1477.657,843.74L1477.657,843.74z"/>
					</g>
				</g>
				<g>
					<g>
						<g>
							<path style="fill:#BEE5ED;" d="M1562.095,865.459c126.349,21.368,253.269,39.306,380.59,53.796
								c36.716,4.178,73.464,8.065,110.239,11.681c6.194,0.609,6.455-9.056,0.287-9.663
								c-127.484-12.535-254.636-28.43-381.261-47.814c-35.715-5.467-71.385-11.217-107.01-17.242
								C1558.884,855.193,1555.978,864.424,1562.095,865.459L1562.095,865.459z"/>
						</g>
					</g>
					<g>
						<g>
							<path style="fill:#6699B2;" d="M1571.679,834.297c93.167,15.779,186.179,32.259,280.075,43.171
								c31.756,3.691,63.558,6.972,95.374,10.099c12.388,1.218,12.91-18.113,0.574-19.326
								c-93.46-9.187-186.257-21.26-278.855-36.886c-30.498-5.147-60.982-10.377-91.477-15.542
								c-5.187-0.878-10.351,0.963-12.087,6.396C1563.855,826.679,1566.538,833.426,1571.679,834.297L1571.679,834.297z"/>
						</g>
					</g>
					<g>
						<g>
							<path style="fill:#BEE5ED;" d="M1558.118,898.119c41.278,7.728,82.848,13.773,124.612,18.173
								c6.189,0.652,6.445-9.014,0.287-9.663c-40.905-4.31-81.623-10.183-122.053-17.752
								C1554.908,887.744,1552.011,896.976,1558.118,898.119L1558.118,898.119z"/>
						</g>
					</g>
					<g>
						<g>
							<path style="fill:#BEE5ED;" d="M1721.864,923.914c41.278,7.728,82.848,13.773,124.612,18.173
								c6.189,0.652,6.445-9.014,0.287-9.663c-40.905-4.31-81.623-10.183-122.053-17.752
								C1718.654,913.538,1715.757,922.77,1721.864,923.914L1721.864,923.914z"/>
						</g>
					</g>
				</g>
			</g>
			<g>
				<g>
					<g>
						<path style="fill:#BEE5ED;" d="M1450.524,1019.142c-4.591,6.67,0.374,15.46,7.681,17.296
							c8.203,2.061,14.446-5.666,13.844-13.332c-0.643-8.206-7.694-13.825-15.832-12.849c-8.094,0.971-13.572,8.412-11.509,16.429
							c5.613,21.807,41.289,1.325,27.094-13.924c-5.401-5.802-15.571-5.257-19.38,1.986c-3.677,6.994,0.472,16.567,8.563,17.595
							c7.997,1.016,15.777-6.711,13.418-14.813c-1.956-6.72-9.997-9.488-16.247-7.541c-7.8,2.43-10.144,11.668-5.263,17.953
							c4.569,5.884,13.781,7.739,19.431,2.27c5.302-5.132,4.679-14.317-0.138-19.547c-5.84-6.34-15.516-5.005-20.805,1.29
							c-5.671,6.75-4.589,16.585,2.621,21.784c6.771,4.882,16.181,3.85,21.257-2.91c5.024-6.691,4.331-17.053-3.087-21.721
							c-6.171-3.883-14.983-2.814-20.334,2.024c-6.278,5.675-5.699,15.283,0.254,20.946c6.196,5.894,15.575,6.761,22.275,1.343
							c5.672-4.586-2.123-12.794-7.761-8.235c-2.268,1.834-6.958-0.237-7.834-2.802c-1.044-3.055,2.796-4.484,5.237-4.31
							c3.474,0.249,4.333,3.963,1.879,6.398c-2.971,2.948-8.56-0.834-6.32-4.634c1.81-3.07,6.532-2.05,5.156,1.695
							c-0.401,1.092-1.041,0.83-2.163,0.186c-0.22-0.127-1.329-1.369-1.042-0.886c0.068,0.114-0.7-0.224,0.046-0.075
							c0.668,0.133,1.386-0.201,2.068,0.167c-0.539-0.291,0.442-0.605-0.487-0.039c-0.817,0.498-0.443,0.493-0.592,0.302
							c-0.421-0.539-0.437-1.717,0.383-1.047c1.47,1.201-1.173,2.961-2.45,3.685c-1.354,0.767-5.408,2.41-4.936-0.804
							c0.222-1.513,2.559-2.108,3.891-1.387c1.339,0.725,1.567,2.224,1.222,3.604c-0.136,0.544,0.717,0.233-0.034,0.104
							c-0.066-0.011-0.431-0.272-0.439-0.34c-0.1-0.809-0.59,0.893-0.071,0.138
							C1464.263,1019.124,1454.644,1013.157,1450.524,1019.142L1450.524,1019.142z"/>
					</g>
				</g>
				<g>
					<g>
						<g>
							<path style="fill:#BEE5ED;" d="M1534.963,1040.86c80.648,13.655,161.111,26.92,242.492,35.385
								c30.011,3.121,60.043,6.045,90.072,8.993c6.194,0.608,6.455-9.057,0.287-9.663c-81.358-7.985-162.457-16.232-243.162-29.403
								c-28.968-4.728-57.903-9.654-86.843-14.553C1531.752,1030.594,1528.846,1039.825,1534.963,1040.86L1534.963,1040.86z"/>
						</g>
					</g>
					<g>
						<g>
							<path style="fill:#6699B2;" d="M1544.547,1009.698c62.174,10.536,123.941,23.329,186.695,29.937
								c27.231,2.867,54.487,5.492,81.737,8.166c12.389,1.216,12.91-18.115,0.574-19.326c-38.802-3.808-77.712-7.136-116.385-12.137
								c-5.17-0.669-10.333-1.387-15.487-2.167c-2.473-0.374-4.943-0.765-7.412-1.162c-2.652-0.427-0.015,0.003-1.614-0.265
								c-1.571-0.263-3.141-0.529-4.711-0.798c-13.11-2.251-26.189-4.679-39.28-7.038c-26.117-4.707-52.262-9.258-78.427-13.693
								c-5.187-0.879-10.351,0.963-12.087,6.396C1536.722,1002.081,1539.405,1008.827,1544.547,1009.698L1544.547,1009.698z"/>
						</g>
					</g>
					<g>
						<g>
							<path style="fill:#BEE5ED;" d="M1530.985,1073.521c41.278,7.728,82.848,13.773,124.612,18.173
								c6.189,0.652,6.446-9.014,0.287-9.663c-40.905-4.31-81.623-10.183-122.053-17.752
								C1527.776,1063.146,1524.879,1072.378,1530.985,1073.521L1530.985,1073.521z"/>
						</g>
					</g>
					<g>
						<g>
							<path style="fill:#BEE5ED;" d="M1694.731,1099.315c41.278,7.728,82.848,13.773,124.612,18.173
								c6.189,0.652,6.445-9.014,0.287-9.663c-40.905-4.31-81.623-10.183-122.053-17.752
								C1691.521,1088.94,1688.625,1098.172,1694.731,1099.315L1694.731,1099.315z"/>
						</g>
					</g>
				</g>
			</g>
			<g>
				<g>
					<path style="fill:#BEE5ED;" d="M2097.039,300.983c-12.841,63.214-22.997,126.949-30.429,191.024
						c-0.141,1.216,0.96,2.896,2.225,3.11c58.407,9.86,117.233,16.959,176.315,21.201c4.054,0.291,4.233-6.017,0.187-6.308
						c-58.512-4.201-116.8-11.161-174.645-20.926c0.742,1.037,1.483,2.073,2.225,3.11c7.368-63.518,17.425-126.69,30.154-189.354
						C2103.874,298.891,2097.847,297.005,2097.039,300.983L2097.039,300.983z"/>
				</g>
			</g>
		</g>
	</g>
	<g>
		<g>
			<path style="fill:#FDBAA0;" d="M1053.988,900.272c28.46,0.399,77.617,4.609,105.421,9.414
				c89.515,15.471,54.457,69.237,143.972,84.708l-133.863,87.761c-29.405,19.976-65.088,26.823-99.108,25.713
				c-34.02-1.11-66.916-9.624-99.518-18.094c-76.125-19.777-167.195-32.198-243.32-51.975
				C812.342,968.046,949.36,898.806,1053.988,900.272z"/>
		</g>
		<g>
			<path style="fill:#FDBAA0;" d="M1478.998,1074.088c15.461,3.788,32.562,10.151,38.61,24.875
				c6.084,14.814-2.389,32.421-15.376,41.791c-12.987,9.37-29.372,12.393-45.19,14.892c-64.765,10.233-130.259,15.853-195.82,16.802
				l41.657-100.311C1360.702,1059.32,1421.472,1059.993,1478.998,1074.088z"/>
		</g>
		<g>
			<path style="fill:#FDBAA0;" d="M1420.758,1223.394c14.223,7.148,29.47,17.171,32.074,32.875
				c2.619,15.799-9.574,31.067-24.327,37.298c-14.753,6.231-31.399,5.515-47.375,4.416c-65.414-4.5-130.507-13.659-194.622-27.387
				l63.021-88.464C1308.755,1182.562,1367.837,1196.799,1420.758,1223.394z"/>
		</g>
		<g>
			<path style="fill:#FDBAA0;" d="M1305.998,1312.795c11.385,11.125,22.874,25.301,20.592,41.054
				c-2.296,15.849-18.545,26.7-34.493,28.163c-15.948,1.463-31.592-4.268-46.483-10.161
				c-60.968-24.127-120.217-52.598-177.149-85.124l86.883-65.183C1211.655,1239.917,1263.636,1271.403,1305.998,1312.795z"/>
		</g>
		<g>
			<g>
				<g>
					<path style="fill:#FDBAA0;" d="M339.333,1441.027c39.353,74.921,113.201,154.768,236.743,244.531
						c26.129,18.992,2.965,78.047,33.688,97.972c28.811-35.215,107.555-106.925,130.817-133.785
						c1.197-1.376,2.384-2.734,3.549-4.077c41.727-48.052,69.851-78.385,69.851-78.385c8.543,1.627,17.934,3.417,28.067,4.648
						c45.607,5.571,106.065-0.129,170.008-82.403c3.263-4.207,6.576-8.32,9.936-12.34c11.823-14.229,24.146-27.375,36.598-39.488
						c45.7-44.435,93.175-74.86,124.504-92.386c6.334-3.538,11.992-6.542,16.862-9.041l0.021-0.014
						c11.974-6.138,19.081-9.144,19.081-9.144l-0.01-0.006l-9.377-3.372l-128.795-46.322l-205.84-273.399l-49.07,181.713
						l-1.048-0.371l-0.297-0.11l-0.019-0.011l-15.982-5.745l-0.019-0.011l-1.482-0.535l-1.93-0.696l-0.01-0.005l-28.698,8.178
						l-0.021,0.013l-151.294,43.082l-4.054,1.156l-28.015,7.984c-4.496,6.39-15.388,16.927-31.114,30.539
						c-1.656,1.43-3.353,2.887-5.104,4.391c-1.282,1.081-2.582,2.191-3.911,3.308c0,0,0,0-0.006,0.01
						C505.236,1317.161,423.37,1379.105,339.333,1441.027z"/>
				</g>
			</g>
		</g>
		<g>
			<g>
				<g>
					<path style="fill:#FDBAA0;" d="M631.175,1346.567c0.498,0.293,1.123,0.354,1.695,0.11c0.957-0.409,1.402-1.516,0.994-2.472
						c-27.421-64.25-4.18-132.398-3.942-133.079c0.343-0.981-0.17-2.05-1.158-2.399c-0.981-0.343-2.056,0.175-2.399,1.157
						c-0.242,0.695-23.954,70.223,4.033,135.8C630.563,1346.068,630.84,1346.369,631.175,1346.567z"/>
				</g>
			</g>
		</g>
		<g>
			<g>
				<g>
					<path style="fill:#FA7267;" d="M1869.36,1296.62l43,17.367c46.105,18.617,76.289,63.361,76.289,113.081v300.597
						c0,10.882-8.821,19.703-19.703,19.703h-183.537H937.431c-10.882,0-19.703-8.821-19.703-19.703V442.1
						c0-10.882,8.821-19.703,19.703-19.703h828.276c10.881,0,19.703,8.821,19.703,19.703v730.075
						C1785.409,1226.894,1818.624,1276.132,1869.36,1296.62z"/>
				</g>
			</g>
			<g>
				<path style="fill:#E7EEFD;" d="M1640.921,840.231l-556.339,0c-8.901,0-16.116-7.215-16.116-16.116V605.597
					c0-8.901,7.215-16.116,16.116-16.116l556.339,0c8.901,0,16.116,7.215,16.116,16.116l0,218.518
					C1657.036,833.016,1649.821,840.231,1640.921,840.231z"/>
			</g>
			<g>
				<g>
					<g>
						<path style="fill:#75A1C9;" d="M1144.886,731.935c117.18,3.813,234.427,4.331,351.584,1.562
							c33.785-0.799,67.561-1.875,101.326-3.209c5.687-0.225,4.654-9.331-1.009-9.107c-117.048,4.625-234.237,6.054-351.406,4.14
							c-33.048-0.54-66.093-1.351-99.132-2.426C1140.631,722.712,1139.213,731.751,1144.886,731.935L1144.886,731.935z"/>
					</g>
				</g>
				<g>
					<g>
						<path style="fill:#6699B2;" d="M1152.477,685.563c104.564,2.904,209.067,6.6,313.678,4.057
							c35.38-0.86,70.747-2.177,106.106-3.663c13.768-0.579,11.353-21.849-2.357-21.273c-103.867,4.368-207.453,5.469-311.37,2.645
							c-34.226-0.93-68.449-1.955-102.675-2.905c-5.822-0.162-11.197,2.654-12.261,8.878
							C1142.724,678.421,1146.707,685.403,1152.477,685.563L1152.477,685.563z"/>
					</g>
				</g>
				<g>
					<g>
						<path style="fill:#75A1C9;" d="M1145.589,770.672c39.765,1.793,79.582,1.968,119.362,0.574
							c5.895-0.206,4.857-9.313-1.009-9.107c-38.963,1.365-77.957,1.239-116.905-0.517
							C1141.204,761.359,1139.707,770.407,1145.589,770.672L1145.589,770.672z"/>
					</g>
				</g>
				<g>
					<g>
						<path style="fill:#75A1C9;" d="M1302.69,773.223c39.765,1.793,79.582,1.968,119.362,0.574
							c5.895-0.207,4.857-9.313-1.009-9.107c-38.963,1.365-77.957,1.239-116.905-0.517
							C1298.305,763.91,1296.807,772.958,1302.69,773.223L1302.69,773.223z"/>
					</g>
				</g>
			</g>
		</g>
		<g>
			<g>
				<path style="fill:#E79780;" d="M880.893,1575.432c-33.803,2.85-67.76-3.113-98.655-17.081c-2.733-1.235-0.346-5.248,2.366-4.022
					c30.138,13.627,63.361,19.214,96.302,16.436C883.905,1570.512,883.865,1575.181,880.893,1575.432L880.893,1575.432z"/>
			</g>
		</g>
		<g>
			<g>
				<path style="fill:#FDBAA0;" d="M620.706,1143.889c25.076-30.628,52.411-59.261,81.659-85.537
					c13.278-11.928,27.149-23.503,42.99-31.074c20.65-9.87,43.454-12.399,65.774-14.795c76.247-8.184,155.527-10.739,237.62-13.085
					c30.662-0.876,31.908,9.262,32.334,27.679c0.296,12.775-4.834,25.464-14.074,34.475c-33.772,32.935-85.408,28.33-134.715,34.554
					c-15.299,1.931-19.985,11.564-36.531,21.886c-32.796,20.458-64.959,30.795-66.229,38.399
					c-19.661,117.724,35.385,179.978-83.262,275.211c-29.117,23.371-48.624-91.82-83.613-97.718l-125.927,22.506
					c-9.616-23.544,32.688-122.073,42.205-146.502C588.454,1185.459,604.196,1164.056,620.706,1143.889z"/>
			</g>
			<g>
				<g>
					<path style="fill:#E79780;" d="M819.841,1357.087c-18.231,57.485-58.392,106.911-110.975,136.456
						c-2.617,1.47-4.904-2.598-2.278-4.073c51.48-28.926,90.892-77.301,108.746-133.596
						C816.24,1353.015,820.75,1354.221,819.841,1357.087L819.841,1357.087z"/>
				</g>
			</g>
			<g>
				<g>
					<path style="fill:#E79780;" d="M562.773,1261.815c-3.383,29.891-4.821,59.955-4.308,90.032
						c0.051,3.011-4.616,2.988-4.667-0.013c-0.513-30.077,0.925-60.141,4.308-90.032
						C558.441,1258.843,563.11,1258.833,562.773,1261.815L562.773,1261.815z"/>
				</g>
			</g>
			<g>
				<g>
					<path style="fill:#E79780;" d="M1068.468,1017.023c-24.152,16.536-74.989,22.088-88.24-11.128
						c-1.111-2.786,3.417-3.927,4.517-1.171c6.151,15.418,23.458,20.578,38.682,20.381c14.959-0.193,30.3-3.623,42.763-12.156
						C1068.666,1011.255,1070.934,1015.335,1068.468,1017.023L1068.468,1017.023z"/>
				</g>
			</g>
			<g>
				<g>
					<path style="fill:#E79780;" d="M930.599,1096.476c-39.155,28.193-80.405,57.369-129.168,65.055
						c-2.944,0.464-4.14-4.049-1.171-4.517c48.381-7.625,89.218-36.642,128.061-64.611
						C930.752,1090.652,933.016,1094.736,930.599,1096.476L930.599,1096.476z"/>
				</g>
			</g>
			<g>
				<g>
					<path style="fill:#E79780;" d="M831.869,1156.399c-4.181,45.362-5.565,90.94-4.143,136.473c0.094,3.01-4.573,2.984-4.667-0.013
						c-1.422-45.532-0.038-91.11,4.143-136.473C827.476,1153.412,832.145,1153.407,831.869,1156.399L831.869,1156.399z"/>
				</g>
			</g>
			<g>
				<g>
					<path style="fill:#E79780;" d="M1012.444,1089.481c-28.066,7.143-57.125,9.537-85.979,7.029
						c-2.977-0.259-2.98-4.927,0.013-4.667c28.48,2.475,57.089,0.172,84.795-6.879
						C1014.187,1084.223,1015.359,1088.739,1012.444,1089.481L1012.444,1089.481z"/>
				</g>
			</g>
			<g>
				<g>
					<path style="fill:#E79780;" d="M912.092,999.928c-42.368,10.159-84.737,20.317-127.106,30.476
						c-2.921,0.7-4.097-3.815-1.17-4.517c42.369-10.159,84.737-20.317,127.106-30.476
						C913.843,994.711,915.02,999.227,912.092,999.928L912.092,999.928z"/>
				</g>
			</g>
		</g>
	</g>
	<g>
		<path style="fill:#EDF9FB;" d="M584.618,1839.202c0,0,137.161-104.238,119.183-130.279
			c-17.978-26.041-154.698-105.686-218.508-200.442c-63.81-94.756-100.086-157.069-132.431-154.142
			c-32.345,2.928-185.247,107.547-185.247,107.547L584.618,1839.202z"/>
	</g>
	<polygon style="fill:#4E9093;" points="187.184,1418.854 616.758,1852.624 535.321,2000 0,2000 0,1493.858 	"/>
</g>
</svg>
